#define e371bebde5604deaffc536341bfa0c5fx2r11eEKlf9zL7kc_width 32
#define e371bebde5604deaffc536341bfa0c5fx2r11eEKlf9zL7kc_height 32
static char e371bebde5604deaffc536341bfa0c5fx2r11eEKlf9zL7kc_bits[] = {
  0x00, 0x00, 0x00, 0x00, 0x00, 0x80, 0x01, 0x00, 0x00, 0xF8, 0x1F, 0x00, 
  0x00, 0x1C, 0x38, 0x00, 0x00, 0x07, 0x60, 0x00, 0x00, 0x01, 0xC0, 0x00, 
  0x80, 0x01, 0x80, 0x01, 0x80, 0x00, 0x00, 0x01, 0xC0, 0xE0, 0x07, 0x03, 
  0xC0, 0x70, 0x0E, 0x02, 0x40, 0xD8, 0x17, 0x03, 0x40, 0xBC, 0x3E, 0x02, 
  0xC0, 0xF4, 0x2B, 0x02, 0x40, 0x78, 0x1F, 0x03, 0xC0, 0xA0, 0x05, 0x03, 
  0x80, 0xC0, 0x03, 0x01, 0x80, 0x81, 0x81, 0x01, 0x00, 0x01, 0x80, 0x00, 
  0x00, 0x07, 0x60, 0x00, 0x00, 0x04, 0x60, 0x00, 0x00, 0x0C, 0x30, 0x00, 
  0x00, 0x18, 0x18, 0x00, 0x00, 0x10, 0x08, 0x00, 0x00, 0x30, 0x08, 0x00, 
  0x00, 0xF0, 0x0F, 0x00, 0x00, 0x30, 0x0C, 0x00, 0x00, 0x10, 0x08, 0x00, 
  0x00, 0xF0, 0x0F, 0x00, 0x00, 0xF0, 0x07, 0x00, 0x00, 0x60, 0x06, 0x00, 
  0x00, 0xC0, 0x03, 0x00, 0x00, 0x00, 0x00, 0x00, };
